<?xml version="1.0" standalone="no"?>
<!DOCTYPE svg PUBLIC "-//W3C//DTD SVG 20010904//EN"
 "http://www.w3.org/TR/2001/REC-SVG-20010904/DTD/svg10.dtd">
<svg version="1.0" xmlns="http://www.w3.org/2000/svg"
 width="152.000000pt" height="152.000000pt" viewBox="0 0 152.000000 152.000000"
 preserveAspectRatio="xMidYMid meet">
<metadata>
Created by potrace 1.14, written by Peter Selinger 2001-2017
</metadata>
<g transform="translate(0.000000,152.000000) scale(0.100000,-0.100000)"
fill="#000000" stroke="none">
<path d="M387 1399 c-90 -21 -151 -71 -189 -154 -23 -50 -23 -52 -23 -480 0
-405 1 -433 20 -485 27 -73 84 -130 154 -153 102 -33 234 -16 306 38 47 35 86
115 94 193 l7 67 12 -63 c18 -88 44 -141 88 -184 70 -67 176 -89 294 -63 68
16 80 22 126 69 84 86 86 100 82 601 -3 382 -5 424 -22 459 -30 67 -66 104
-124 133 -50 24 -69 28 -147 28 -79 0 -97 -4 -148 -29 -38 -18 -69 -43 -88
-68 -26 -37 -36 -63 -67 -178 l-10 -35 -1 41 c-3 126 -70 218 -186 253 -71 22
-116 25 -178 10z m145 -180 c32 -17 48 -71 48 -164 l0 -85 184 0 184 0 4 95
c3 76 8 100 24 122 40 53 127 55 165 3 18 -23 19 -52 19 -427 1 -482 3 -473
-104 -473 -84 0 -106 42 -106 203 l0 97 -184 0 -184 0 -4 -126 -3 -126 -33
-29 c-53 -47 -143 -34 -170 26 -9 19 -12 136 -12 421 0 418 2 437 47 463 24
14 99 14 125 0z"/>
</g>
</svg>
